<?xml version="1.0" standalone="no"?>
<!DOCTYPE svg PUBLIC "-//W3C//DTD SVG 20010904//EN"
 "http://www.w3.org/TR/2001/REC-SVG-20010904/DTD/svg10.dtd">
<svg version="1.0" xmlns="http://www.w3.org/2000/svg"
 width="225.000000pt" height="225.000000pt" viewBox="0 0 225.000000 225.000000"
 preserveAspectRatio="xMidYMid meet">
<metadata>
Created by potrace 1.11, written by Peter Selinger 2001-2013
</metadata>
<g transform="translate(0.000000,225.000000) scale(0.100000,-0.100000)"
fill="#000000" stroke="none">
<path d="M0 1125 l0 -1125 1125 0 1125 0 0 1125 0 1125 -1125 0 -1125 0 0
-1125z m1545 975 c3 -5 -1 -10 -9 -10 -9 0 -16 5 -16 10 0 6 4 10 9 10 6 0 13
-4 16 -10z m-808 -6 c-3 -3 -12 -4 -19 -1 -8 3 -5 6 6 6 11 1 17 -2 13 -5z
m-97 -54 c0 -5 -4 -10 -10 -10 -5 0 -10 5 -10 10 0 6 5 10 10 10 6 0 10 -4 10
-10z m-50 -24 c0 -2 -9 -6 -20 -9 -11 -3 -18 -1 -14 4 5 9 34 13 34 5z m850
-41 c0 -8 -6 -15 -14 -15 -17 0 -28 14 -19 24 12 12 33 6 33 -9z m-600 -10
c-7 -8 -19 -15 -26 -15 -8 0 -14 7 -14 15 0 10 10 15 26 15 22 0 25 -2 14 -15z
m-350 -25 c0 -5 -7 -10 -15 -10 -8 0 -15 5 -15 10 0 6 7 10 15 10 8 0 15 -4
15 -10z m1285 0 c3 -5 1 -10 -4 -10 -6 0 -11 5 -11 10 0 6 2 10 4 10 3 0 8 -4
11 -10z m-1020 -20 c-3 -5 -17 -10 -30 -10 -13 0 -27 5 -30 10 -4 6 8 10 30
10 22 0 34 -4 30 -10z m365 -85 c0 -11 11 -15 40 -15 22 0 40 -4 40 -10 0 -6
33 -10 80 -10 79 0 80 0 80 -25 0 -16 -6 -25 -15 -25 -8 0 -15 -9 -15 -20 0
-11 6 -20 14 -20 17 0 26 -22 26 -66 0 -31 3 -34 30 -34 28 0 30 2 32 43 1 34
2 36 5 11 3 -26 8 -30 27 -27 13 3 28 -2 35 -11 8 -9 20 -16 27 -16 9 0 14
-12 14 -38 0 -41 -14 -55 -68 -67 -25 -5 -32 -3 -32 9 0 9 -4 16 -10 16 -5 0
-10 -18 -10 -40 0 -22 5 -40 10 -40 6 0 10 5 10 10 0 7 6 7 19 0 11 -5 29 -10
40 -10 30 0 26 -14 -9 -27 -20 -7 -30 -18 -30 -32 0 -22 57 -71 83 -71 10 0
17 -8 18 -17 0 -11 3 -13 6 -5 2 6 17 12 31 12 19 0 32 9 44 30 23 41 34 38
33 -10 0 -22 -3 -40 -7 -40 -15 0 -68 -63 -68 -81 0 -11 -4 -17 -10 -14 -5 3
-10 15 -10 27 0 11 -9 31 -20 45 -17 21 -20 23 -20 8 0 -10 7 -26 16 -36 15
-17 15 -19 0 -34 -9 -9 -16 -20 -16 -24 0 -12 -58 -11 -88 0 -22 8 -30 7 -42
-8 -21 -24 -55 -43 -78 -43 -10 0 -24 -6 -31 -12 -11 -10 -14 -10 -18 0 -3 6
-20 12 -38 12 -28 0 -32 3 -28 19 8 33 -68 125 -119 144 -10 3 -18 17 -18 29
0 31 -10 44 -40 53 -14 4 -46 30 -72 57 -38 41 -49 48 -54 34 -3 -9 -13 -16
-21 -16 -12 0 -13 3 -4 14 15 18 -7 65 -44 94 -14 11 -25 27 -25 36 0 9 -8 16
-20 16 -11 0 -20 4 -20 10 0 5 -13 16 -30 25 -17 9 -30 24 -30 34 0 10 -7 24
-15 31 -13 10 -12 15 3 36 14 19 26 23 72 24 42 0 51 3 38 11 -29 16 -21 28
22 35 24 4 40 12 40 20 0 11 25 14 120 14 100 0 120 -2 120 -15z m820 -55 c0
-5 -4 -10 -10 -10 -5 0 -10 5 -10 10 0 6 5 10 10 10 6 0 10 -4 10 -10z m-1280
-61 c0 -5 -4 -9 -10 -9 -5 0 -10 7 -10 16 0 8 5 12 10 9 6 -3 10 -10 10 -16z
m-370 -9 c0 -14 -7 -20 -22 -20 -20 0 -21 1 -3 20 10 11 20 20 22 20 1 0 3 -9
3 -20z m1688 -8 c2 -7 -3 -12 -12 -12 -9 0 -16 7 -16 16 0 17 22 14 28 -4z
m-1559 -69 c1 -13 -3 -23 -9 -23 -5 0 -10 19 -9 43 0 32 2 37 9 22 5 -11 9
-30 9 -42z m61 41 c0 -8 -4 -12 -10 -9 -5 3 -10 10 -10 16 0 5 5 9 10 9 6 0
10 -7 10 -16z m1005 6 c-3 -5 -12 -7 -20 -3 -21 7 -19 13 6 13 11 0 18 -4 14
-10z m555 -60 c0 -5 -4 -10 -10 -10 -5 0 -10 5 -10 10 0 6 5 10 10 10 6 0 10
-4 10 -10z m-1660 -20 c0 -5 -7 -10 -15 -10 -8 0 -15 5 -15 10 0 6 7 10 15 10
8 0 15 -4 15 -10z m1510 -5 c0 -8 -4 -15 -9 -15 -5 0 -14 7 -21 15 -10 13 -9
15 9 15 12 0 21 -6 21 -15z m-1346 -21 c27 -10 20 -44 -9 -44 -26 0 -29 7 -19
34 7 18 7 18 28 10z m56 -58 c0 -19 -39 -65 -40 -47 0 24 -36 -20 -49 -62 -9
-26 -18 -37 -32 -37 -16 0 -19 7 -19 49 0 57 9 89 20 71 5 -8 19 -4 45 14 41
29 75 34 75 12z m1317 -8 c-3 -8 -6 -5 -6 6 -1 11 2 17 5 13 3 -3 4 -12 1 -19z
m-1761 -55 c-11 -11 -17 4 -9 23 7 18 8 18 11 1 2 -10 1 -21 -2 -24z m504 -3
c10 0 22 -10 25 -22 4 -11 19 -32 34 -46 15 -15 19 -23 10 -19 -13 4 -16 1
-12 -14 4 -15 14 -19 44 -19 32 0 39 -3 39 -20 0 -11 7 -20 15 -20 9 0 15 -9
15 -24 0 -43 10 -56 44 -56 18 0 38 -6 44 -12 10 -10 15 -10 22 2 5 8 12 11
16 7 4 -4 3 -12 -3 -18 -13 -13 6 -59 25 -59 7 0 18 -11 24 -25 6 -14 17 -25
25 -25 7 0 13 -6 13 -14 0 -7 9 -16 19 -19 14 -3 21 -15 23 -38 3 -30 7 -34
36 -37 17 -2 32 -8 32 -13 0 -6 -8 -9 -17 -8 -25 4 -73 -10 -73 -20 0 -5 15
-15 33 -22 31 -12 31 -12 7 -17 -14 -2 -29 -10 -33 -18 -11 -19 -27 -18 -27 1
0 23 -15 18 -49 -16 -17 -17 -31 -35 -31 -40 0 -13 -54 -11 -67 2 -9 9 -12 7
-11 -7 1 -10 -2 -30 -6 -44 l-8 -25 17 23 c13 18 24 23 43 19 15 -3 32 1 39 9
8 8 29 13 46 12 l32 -1 -34 -4 -34 -4 36 -25 c20 -13 47 -24 59 -24 13 0 29
-5 36 -12 9 -9 12 -7 12 8 0 50 91 69 103 22 6 -21 25 -21 82 -4 14 5 31 -3
58 -28 35 -31 37 -35 20 -44 -17 -10 -17 -11 2 -17 78 -26 80 -28 75 -69 -1
-15 3 -18 19 -13 12 3 27 0 34 -7 6 -7 19 -15 28 -18 10 -4 18 -21 21 -42 3
-30 1 -36 -14 -36 -10 0 -21 -6 -24 -14 -3 -8 -23 -18 -45 -21 -23 -4 -45 -15
-52 -26 -6 -10 -19 -19 -27 -19 -9 0 -21 -5 -28 -12 -9 -9 -12 -9 -12 0 0 7
-13 12 -32 11 -18 0 -26 -3 -18 -6 8 -2 22 -7 30 -10 36 -12 -81 -33 -188 -33
-124 0 -243 19 -312 52 -75 34 -105 50 -115 62 -6 6 -26 20 -45 30 -51 28
-127 103 -164 161 -77 120 -86 136 -86 154 0 25 -20 71 -32 71 -4 0 -8 18 -8
39 0 22 -4 41 -8 43 -5 2 -12 56 -16 121 -5 100 -4 117 9 117 11 0 15 12 15
43 l1 42 14 -34 c19 -42 19 -51 0 -51 -20 0 -20 -65 0 -104 8 -15 15 -37 15
-48 0 -14 5 -18 16 -14 9 3 22 6 30 6 8 0 14 9 14 20 0 11 -4 20 -10 20 -5 0
-10 9 -10 20 0 11 5 20 10 20 6 0 10 6 10 14 0 8 6 16 14 19 7 3 16 15 19 26
4 16 0 21 -14 21 -13 0 -19 8 -20 23 l-2 22 -4 -22 c-8 -41 -33 -27 -33 17 0
33 3 40 20 40 13 0 20 7 20 20 0 13 10 24 25 30 17 6 25 17 25 34 0 28 25 54
33 34 4 -9 16 -2 39 22 18 19 35 32 36 28 2 -5 12 -8 22 -8z m1460 -46 c0 -24
-5 -34 -15 -34 -10 0 -15 10 -15 33 0 19 3 37 6 40 13 13 24 -5 24 -39z m-130
-25 c0 -5 -7 -9 -15 -9 -15 0 -20 12 -9 23 8 8 24 -1 24 -14z m-1710 -49 c0
-29 -4 -40 -15 -40 -11 0 -15 11 -15 40 0 29 4 40 15 40 11 0 15 -11 15 -40z
m1340 31 c0 -18 -18 -21 -30 -6 -10 13 -9 15 9 15 11 0 21 -4 21 -9z m-173
-252 c1 -19 1 -20 -4 -4 -3 11 -10 24 -17 28 -7 6 -6 7 4 4 8 -2 16 -14 17
-28z m-407 5 c0 -8 -4 -12 -10 -9 -5 3 -10 10 -10 16 0 5 5 9 10 9 6 0 10 -7
10 -16z m457 -56 c-3 -8 -6 -5 -6 6 -1 11 2 17 5 13 3 -3 4 -12 1 -19z m-202
2 c3 -5 1 -10 -4 -10 -6 0 -11 5 -11 10 0 6 2 10 4 10 3 0 8 -4 11 -10z m425
-11 c0 -12 8 -23 20 -26 23 -6 27 -23 6 -23 -21 0 -31 -21 -15 -30 16 -11 -34
-25 -56 -16 -19 7 -21 81 -2 101 19 22 47 18 47 -6z m-215 -19 c15 -6 9 -9
-25 -9 -34 0 -40 3 -25 9 11 5 22 9 25 9 3 0 14 -4 25 -9z m-138 -52 c-3 -8
-6 -5 -6 6 -1 11 2 17 5 13 3 -3 4 -12 1 -19z m253 -12 c0 -3 -4 -8 -10 -11
-5 -3 -10 -1 -10 4 0 6 5 11 10 11 6 0 10 -2 10 -4z m-6 -57 c10 16 41 14 56
-4 7 -8 25 -15 41 -15 28 0 29 -2 29 -50 0 -60 -30 -110 -67 -110 -27 0 -73
37 -73 59 -1 9 -14 27 -29 40 -35 28 -32 65 4 59 18 -4 21 -1 18 16 -4 16 -2
17 5 7 7 -9 12 -10 16 -2z m146 -4 c0 -11 -8 -13 -32 -8 -51 9 -57 23 -10 23
30 0 42 -4 42 -15z m-480 -25 c0 -5 -4 -10 -9 -10 -6 0 -13 5 -16 10 -3 6 1
10 9 10 9 0 16 -4 16 -10z m-160 -53 c0 -21 -48 -43 -62 -29 -9 9 -7 12 9 12
11 0 23 7 27 15 7 19 26 20 26 2z m796 -94 c-10 -10 -19 5 -10 18 6 11 8 11
12 0 2 -7 1 -15 -2 -18z m171 5 c-3 -8 -6 -5 -6 6 -1 11 2 17 5 13 3 -3 4 -12
1 -19z m-1707 -73 c10 -13 9 -15 -9 -15 -12 0 -21 6 -21 15 0 8 4 15 9 15 5 0
14 -7 21 -15z m-160 -25 c0 -5 -4 -10 -9 -10 -6 0 -13 5 -16 10 -3 6 1 10 9
10 9 0 16 -4 16 -10z m187 -22 c-3 -7 -5 -2 -5 12 0 14 2 19 5 13 2 -7 2 -19
0 -25z m1095 0 c-15 -15 -26 -4 -18 18 5 13 9 15 18 6 9 -9 9 -15 0 -24z
m-1058 -33 c3 -9 0 -15 -9 -15 -8 0 -15 7 -15 15 0 8 4 15 9 15 5 0 11 -7 15
-15z m1336 -6 c0 -5 -4 -9 -10 -9 -5 0 -10 7 -10 16 0 8 5 12 10 9 6 -3 10
-10 10 -16z m60 1 c0 -5 -4 -10 -10 -10 -5 0 -10 5 -10 10 0 6 5 10 10 10 6 0
10 -4 10 -10z m-1550 -30 c0 -11 -2 -20 -3 -20 -2 0 -12 9 -22 20 -18 19 -17
20 3 20 15 0 22 -6 22 -20z m210 -50 c0 -5 -4 -10 -10 -10 -5 0 -10 5 -10 10
0 6 5 10 10 10 6 0 10 -4 10 -10z m-180 -20 c0 -5 -4 -10 -10 -10 -5 0 -10 5
-10 10 0 6 5 10 10 10 6 0 10 -4 10 -10z m1570 -78 c0 -5 -11 -19 -25 -32 -22
-21 -25 -21 -25 -5 0 10 8 24 18 31 20 15 32 18 32 6z m-290 -42 c0 -5 -2 -10
-4 -10 -3 0 -8 5 -11 10 -3 6 -1 10 4 10 6 0 11 -4 11 -10z m-53 -26 c-3 -3
-12 -4 -19 -1 -8 3 -5 6 6 6 11 1 17 -2 13 -5z m290 -10 c-3 -3 -12 -4 -19 -1
-8 3 -5 6 6 6 11 1 17 -2 13 -5z m-1012 -44 c-3 -5 -10 -10 -16 -10 -5 0 -9 5
-9 10 0 6 7 10 16 10 8 0 12 -4 9 -10z m615 -20 c0 -5 -7 -10 -16 -10 -8 0
-12 5 -9 10 3 6 10 10 16 10 5 0 9 -4 9 -10z m-850 -14 c0 -2 -7 -6 -15 -10
-8 -3 -15 -1 -15 4 0 6 7 10 15 10 8 0 15 -2 15 -4z m1093 -3 c-7 -2 -19 -2
-25 0 -7 3 -2 5 12 5 14 0 19 -2 13 -5z m-583 -114 c0 -35 -2 -39 -17 -31 -10
5 -24 7 -30 5 -9 -3 -13 6 -13 30 0 31 3 34 30 35 28 1 30 -1 30 -39z m296 24
c-3 -7 -1 -13 4 -13 6 0 10 6 10 14 0 10 20 14 85 14 l85 1 0 -35 c0 -35 -16
-48 -22 -17 -3 15 -4 15 -20 -1 -13 -13 -18 -14 -19 -4 0 10 -2 10 -6 1 -2 -7
-18 -13 -34 -13 -26 0 -34 9 -30 33 0 4 -4 7 -9 7 -6 0 -8 -10 -4 -24 5 -20 2
-23 -18 -22 -13 0 -26 5 -30 11 -4 6 -13 2 -22 -10 -11 -15 -17 -17 -28 -7 -8
6 -18 9 -21 5 -4 -3 -9 2 -13 11 -3 9 -10 13 -15 10 -5 -3 -7 -9 -4 -13 2 -5
-9 -8 -25 -7 -26 1 -30 5 -31 31 0 17 -3 24 -6 18 -2 -7 -11 -13 -19 -13 -8 0
-14 -4 -14 -10 0 -5 7 -7 15 -4 8 4 15 1 15 -5 0 -6 -8 -11 -17 -12 -10 0 -35
-1 -56 -2 -37 -2 -37 -2 -37 36 l0 38 145 -2 c115 -2 145 -6 141 -16z m227 10
c-13 -2 -23 -9 -23 -14 0 -5 10 -10 23 -10 l22 -2 -22 -4 c-37 -7 -26 -24 14
-21 30 2 37 7 40 27 6 39 13 38 13 -2 0 -35 -1 -37 -34 -37 -19 0 -41 -3 -50
-6 -13 -5 -16 2 -16 35 0 38 2 41 28 40 23 -2 24 -2 5 -6z m197 -3 c0 -5 -10
-10 -22 -11 -22 -1 -22 -1 2 -9 17 -5 19 -8 8 -9 -23 -1 -24 -21 -1 -21 22 0
14 -6 -18 -13 -24 -6 -25 -4 -22 26 2 22 1 27 -5 14 -4 -10 -11 -18 -15 -18
-22 3 -27 -1 -27 -16 0 -10 -3 -13 -9 -8 -5 6 -7 25 -4 43 5 32 6 32 59 32 30
0 54 -4 54 -10z m70 0 c10 -7 11 -10 2 -10 -10 0 -10 -4 0 -19 7 -11 16 -17
20 -15 4 3 8 0 8 -6 0 -7 -16 -10 -42 -8 -32 2 -44 8 -46 21 -8 41 22 60 58
37z m178 -22 c3 -22 -2 -30 -23 -38 -33 -13 -38 -13 -30 0 3 6 1 10 -4 10 -6
0 -11 10 -12 23 -1 21 -1 21 -8 -3 -8 -31 -54 -36 -59 -7 -7 38 4 45 70 43 61
-1 63 -2 66 -28z m38 10 l7 -23 8 23 c13 35 29 26 28 -15 -1 -34 -2 -35 -9
-13 -8 24 -8 24 -9 3 -1 -27 -19 -30 -28 -6 -6 15 -7 15 -14 -3 -6 -14 -8 -9
-8 19 -1 41 14 50 25 15z m-1306 -13 c0 -8 -6 -15 -14 -15 -20 0 -29 17 -14
23 22 9 28 7 28 -8z m143 -52 c-13 -2 -33 -2 -45 0 -13 2 -3 4 22 4 25 0 35
-2 23 -4z m320 -20 c-13 -2 -33 -2 -45 0 -13 2 -3 4 22 4 25 0 35 -2 23 -4z"/>
<path d="M1220 1762 c0 -5 6 -17 14 -27 12 -16 16 -17 30 -6 26 22 19 41 -14
41 -16 0 -30 -4 -30 -8z"/>
<path d="M1259 1689 l-24 -7 23 -7 c16 -5 22 -15 22 -36 0 -26 -4 -29 -40 -35
-22 -4 -44 -12 -48 -18 -16 -20 -23 -78 -10 -93 11 -14 16 -63 19 -193 1 -58
2 -62 12 -37 13 33 44 36 57 5 l9 -23 0 23 c1 13 7 22 16 22 8 0 15 7 15 15 0
8 -7 15 -15 15 -9 0 -15 9 -15 23 0 24 -35 53 -45 37 -3 -6 -10 -10 -16 -10
-5 0 -4 9 3 20 10 15 10 22 0 32 -21 21 -13 27 26 24 l37 -4 -4 41 c-2 23 -8
45 -13 48 -5 3 14 4 42 1 50 -5 52 -4 46 17 -3 11 -9 30 -12 41 -3 11 -1 20 5
20 6 0 11 18 11 39 0 38 -1 39 -39 43 -21 2 -49 0 -62 -3z m61 -101 c0 -13 -4
-29 -9 -36 -6 -10 -10 -8 -14 10 -10 36 -8 48 8 48 9 0 15 -9 15 -22z m-40 -8
c0 -5 -2 -10 -4 -10 -3 0 -8 5 -11 10 -3 6 -1 10 4 10 6 0 11 -4 11 -10z m-30
-19 c0 -9 -24 -21 -41 -21 -5 0 -9 7 -9 15 0 9 9 15 25 15 14 0 25 -4 25 -9z"/>
<path d="M962 1578 c6 -17 36 -34 44 -25 4 4 -1 14 -12 22 -23 18 -37 19 -32
3z"/>
<path d="M950 1545 c0 -8 4 -15 10 -15 5 0 7 7 4 15 -4 8 -8 15 -10 15 -2 0
-4 -7 -4 -15z"/>
<path d="M1122 1495 c1 -16 9 -30 16 -33 18 -6 15 33 -4 49 -14 11 -15 9 -12
-16z"/>
<path d="M1144 1413 c-3 -18 -10 -30 -15 -27 -5 3 -9 1 -9 -5 0 -5 9 -9 20 -8
24 2 35 30 21 54 -9 16 -11 14 -17 -14z"/>
<path d="M1410 1421 c0 -6 5 -13 10 -16 18 -11 0 -25 -33 -25 -18 0 -27 -4
-21 -8 7 -4 14 -16 17 -27 5 -19 5 -19 12 3 4 12 15 22 26 22 14 0 19 7 19 30
0 20 -5 30 -15 30 -8 0 -15 -4 -15 -9z"/>
<path d="M1458 1216 c-27 -20 -21 -25 17 -14 19 6 32 15 29 20 -7 12 -26 9
-46 -6z"/>
<path d="M1240 1160 c0 -11 5 -20 10 -20 6 0 10 9 10 20 0 11 -4 20 -10 20 -5
0 -10 -9 -10 -20z"/>
<path d="M580 1350 c0 -11 4 -20 10 -20 5 0 14 9 20 20 9 17 8 20 -10 20 -13
0 -20 -7 -20 -20z"/>
<path d="M560 1311 c0 -12 5 -21 10 -21 6 0 10 6 10 14 0 8 -4 18 -10 21 -5 3
-10 -3 -10 -14z"/>
<path d="M905 1120 c4 -6 11 -8 16 -5 14 9 11 15 -7 15 -8 0 -12 -5 -9 -10z"/>
<path d="M578 1075 c-9 -21 -18 -25 -53 -25 -26 0 -48 -6 -55 -15 -7 -9 -11
-17 -9 -19 12 -12 118 -46 142 -46 17 0 27 -5 27 -15 0 -20 -39 -19 -62 2 -18
16 -23 8 -12 -21 3 -9 13 -16 20 -16 8 0 17 -7 20 -15 7 -18 41 -20 46 -3 5
15 51 3 73 -19 9 -9 15 -24 12 -33 -3 -11 5 -20 24 -27 16 -7 29 -7 29 -2 0 5
-4 9 -10 9 -5 0 -10 7 -10 15 0 7 -8 18 -17 24 -22 12 -17 17 25 26 26 5 32 3
32 -10 0 -9 -4 -13 -10 -10 -5 3 -10 1 -10 -4 0 -6 9 -11 20 -11 21 0 27 -19
10 -36 -7 -7 -3 -14 14 -22 16 -7 28 -8 31 -2 4 6 -4 10 -17 11 -21 1 -21 1 5
11 33 12 36 38 5 38 -15 0 -27 10 -35 27 -18 38 -16 44 12 33 14 -5 33 -7 42
-3 14 4 15 3 7 -6 -8 -9 -4 -20 16 -42 16 -16 33 -29 39 -29 22 0 10 37 -19
58 -16 13 -30 29 -30 37 0 8 -4 15 -10 15 -5 0 -10 -4 -10 -10 0 -5 -7 -10
-15 -10 -16 0 -20 16 -6 24 5 4 -2 29 -15 57 l-25 51 -25 -27 c-27 -29 -26
-55 3 -55 10 0 23 -4 30 -8 7 -4 -14 -7 -45 -7 -31 1 -69 -3 -84 -9 -30 -11
-51 0 -28 14 11 7 12 11 0 25 -10 12 -10 21 -1 42 8 18 9 29 1 37 -7 7 -10 4
-10 -9 -1 -16 -4 -15 -16 8 -18 34 -31 34 -46 2z m-18 -45 c0 -5 -8 -10 -17
-10 -10 0 -28 -3 -40 -6 -13 -4 -23 -2 -23 4 0 11 21 19 58 21 12 0 22 -3 22
-9z"/>
<path d="M675 980 c-3 -5 -2 -10 4 -10 5 0 13 5 16 10 3 6 2 10 -4 10 -5 0
-13 -4 -16 -10z"/>
<path d="M968 893 c7 -3 16 -2 19 1 4 3 -2 6 -13 5 -11 0 -14 -3 -6 -6z"/>
<path d="M640 877 c0 -16 32 -47 48 -47 18 0 14 11 -14 36 -29 28 -34 29 -34
11z"/>
<path d="M540 861 c0 -15 55 -51 78 -51 11 0 22 -5 24 -12 3 -7 12 -9 22 -5
24 9 12 24 -26 33 -18 3 -37 12 -43 19 -13 17 -55 29 -55 16z"/>
<path d="M464 829 c-3 -6 -1 -16 5 -22 8 -8 11 -5 11 11 0 24 -5 28 -16 11z"/>
<path d="M509 819 c-10 -6 -7 -9 14 -9 29 0 35 5 14 13 -8 3 -20 1 -28 -4z"/>
<path d="M700 773 c0 -5 14 -16 31 -25 24 -14 34 -15 49 -5 28 17 27 42 0 27
-14 -7 -26 -8 -39 0 -23 12 -41 13 -41 3z"/>
<path d="M640 741 c0 -6 -17 -11 -39 -11 -30 0 -40 -4 -44 -20 -8 -30 3 -60
22 -60 9 0 27 -8 41 -17 22 -16 23 -16 17 0 -5 12 -1 17 13 17 17 0 20 7 20
40 0 22 0 43 1 48 0 4 -7 8 -15 10 -9 2 -16 -1 -16 -7z"/>
<path d="M956 740 c-39 -4 -72 -12 -74 -18 -5 -15 -39 -16 -47 -2 -9 15 -35
12 -35 -3 0 -13 24 -28 63 -41 9 -3 17 -1 17 4 0 5 12 12 28 16 62 14 132 38
132 46 0 4 -3 7 -7 7 -5 -1 -39 -5 -77 -9z"/>
<path d="M1053 706 c10 -8 16 -20 15 -27 -2 -7 6 -15 16 -17 14 -3 17 0 12 13
-3 9 -6 23 -6 31 0 9 -10 14 -27 14 -26 -1 -27 -2 -10 -14z"/>
<path d="M1160 700 c0 -5 9 -10 21 -10 11 0 17 5 14 10 -3 6 -13 10 -21 10 -8
0 -14 -4 -14 -10z"/>
<path d="M1220 690 c0 -5 9 -10 20 -10 11 0 20 5 20 10 0 6 -9 10 -20 10 -11
0 -20 -4 -20 -10z"/>
<path d="M1280 685 c0 -10 10 -15 29 -15 34 0 49 15 25 24 -28 11 -54 6 -54
-9z"/>
<path d="M992 663 c-13 -3 -26 -11 -29 -19 -6 -16 -83 -20 -83 -4 0 6 14 10
32 10 17 0 29 2 26 5 -3 3 -35 3 -72 -1 -64 -7 -66 -7 -66 -35 0 -27 3 -29 40
-29 33 0 40 -3 40 -20 0 -23 23 -25 120 -11 30 5 56 4 58 0 6 -15 30 -10 36 7
10 25 -1 29 -40 15 -26 -9 -39 -10 -47 -2 -6 6 -19 11 -29 11 -11 0 -18 7 -18
20 0 11 6 20 13 20 18 0 67 24 67 33 0 7 -9 7 -48 0z"/>
<path d="M1070 640 c0 -5 -8 -10 -17 -10 -12 0 -14 -3 -6 -11 7 -7 17 -8 25
-3 7 5 29 14 48 20 l35 12 -42 1 c-24 1 -43 -3 -43 -9z"/>
<path d="M684 549 c15 -12 30 -18 34 -14 9 8 -26 35 -46 35 -9 0 -4 -8 12 -21z"/>
<path d="M738 563 c12 -2 32 -2 45 0 12 2 2 4 -23 4 -25 0 -35 -2 -22 -4z"/>
<path d="M772 533 c-15 -6 -6 -23 14 -23 8 0 14 7 14 15 0 15 -6 17 -28 8z"/>
<path d="M880 500 c0 -5 18 -10 40 -10 22 0 40 5 40 10 0 6 -18 10 -40 10 -22
0 -40 -4 -40 -10z"/>
<path d="M865 460 c-3 -5 -1 -10 4 -10 6 0 11 5 11 10 0 6 -2 10 -4 10 -3 0
-8 -4 -11 -10z"/>
<path d="M1200 460 c0 -5 18 -10 40 -10 22 0 40 5 40 10 0 6 -18 10 -40 10
-22 0 -40 -4 -40 -10z"/>
<path d="M1083 433 c-54 -5 -56 -23 -3 -23 22 0 40 4 40 9 0 6 19 12 43 14
l42 4 -40 0 c-22 0 -59 -2 -82 -4z"/>
<path d="M898 423 c12 -2 32 -2 45 0 12 2 2 4 -23 4 -25 0 -35 -2 -22 -4z"/>
<path d="M968 403 c7 -3 16 -2 19 1 4 3 -2 6 -13 5 -11 0 -14 -3 -6 -6z"/>
<path d="M1145 150 c3 -5 11 -10 16 -10 6 0 7 5 4 10 -3 6 -11 10 -16 10 -6 0
-7 -4 -4 -10z"/>
<path d="M1190 149 c0 -5 5 -7 10 -4 6 3 10 8 10 11 0 2 -4 4 -10 4 -5 0 -10
-5 -10 -11z"/>
<path d="M1250 150 c12 -8 13 -12 2 -19 -11 -7 -11 -9 2 -14 12 -5 16 0 16 18
0 17 -6 25 -17 25 -15 0 -16 -2 -3 -10z"/>
<path d="M1467 154 c-4 -4 -7 -14 -7 -23 0 -14 2 -14 10 -1 9 13 11 13 21 0 8
-13 10 -12 7 4 -3 21 -20 31 -31 20z"/>
<path d="M1540 150 c0 -5 5 -10 10 -10 6 0 10 5 10 10 0 6 -4 10 -10 10 -5 0
-10 -4 -10 -10z"/>
<path d="M1140 120 c0 -5 7 -10 15 -10 8 0 15 5 15 10 0 6 -7 10 -15 10 -8 0
-15 -4 -15 -10z"/>
<path d="M1720 150 c0 -5 7 -10 15 -10 8 0 15 5 15 10 0 6 -7 10 -15 10 -8 0
-15 -4 -15 -10z"/>
<path d="M1851 151 c-8 -5 -11 -16 -8 -25 10 -25 25 -19 25 9 0 14 -1 25 -2
25 0 0 -7 -4 -15 -9z"/>
<path d="M1945 150 c-10 -16 16 -43 28 -31 11 11 2 41 -12 41 -5 0 -13 -5 -16
-10z"/>
<path d="M2027 153 c-4 -3 -7 -15 -7 -25 0 -26 24 -17 28 10 3 21 -8 29 -21
15z"/>
</g>
</svg>
